<svg xmlns="http://www.w3.org/2000/svg" width="1000" height="650" viewBox="0 0 1000 650" font-family="Arial, Helvetica, sans-serif">
  <defs>
    <marker id="arrowRight" markerWidth="10" markerHeight="7" refX="10" refY="3.5" orient="auto">
      <polygon points="0 0, 10 3.5, 0 7" fill="#424242"/>
    </marker>
    <marker id="arrowLeft" markerWidth="10" markerHeight="7" refX="0" refY="3.5" orient="auto">
      <polygon points="10 0, 0 3.5, 10 7" fill="#424242"/>
    </marker>
    <marker id="arrowPurple" markerWidth="10" markerHeight="7" refX="10" refY="3.5" orient="auto">
      <polygon points="0 0, 10 3.5, 0 7" fill="#7b1fa2"/>
    </marker>
  </defs>

  <!-- Background -->
  <rect width="1000" height="650" fill="#ffffff" rx="4"/>

  <!-- Title -->
  <text x="500" y="30" text-anchor="middle" font-size="18" font-weight="bold" fill="#212121">MaGuTong - Docker Deployment Architecture</text>

  <!-- ============================================================ -->
  <!-- Docker Host -->
  <!-- ============================================================ -->
  <rect x="20" y="50" width="680" height="540" rx="12" fill="#f5f5f5" stroke="#616161" stroke-width="2"/>
  <text x="36" y="72" font-size="13" font-weight="bold" fill="#616161">Docker Host</text>

  <!-- ============================================================ -->
  <!-- Docker Network -->
  <!-- ============================================================ -->
  <rect x="40" y="85" width="640" height="395" rx="10" fill="none" stroke="#90a4ae" stroke-width="2" stroke-dasharray="8 4"/>
  <text x="56" y="105" font-size="12" font-weight="bold" fill="#607d8b">Docker Network: bursascrapper_default (bridge)</text>

  <!-- ============================================================ -->
  <!-- magutong-app container -->
  <!-- ============================================================ -->
  <rect x="60" y="120" width="300" height="340" rx="8" fill="#e3f2fd" stroke="#1565c0" stroke-width="2"/>
  <!-- Container header bar -->
  <rect x="60" y="120" width="300" height="32" rx="8" fill="#1565c0"/>
  <rect x="60" y="140" width="300" height="12" fill="#1565c0"/>
  <text x="210" y="141" text-anchor="middle" font-size="13" font-weight="bold" fill="#ffffff">magutong-app</text>

  <!-- Container details -->
  <text x="76" y="174" font-size="11" fill="#1565c0" font-weight="bold">Base Image</text>
  <text x="76" y="188" font-size="10" fill="#37474f">eclipse-temurin:17-jre</text>

  <text x="76" y="208" font-size="11" fill="#1565c0" font-weight="bold">Application</text>
  <text x="76" y="222" font-size="10" fill="#37474f">Spring Boot App + Playwright Chromium</text>

  <text x="76" y="242" font-size="11" fill="#1565c0" font-weight="bold">JVM Flags</text>
  <text x="76" y="256" font-size="9" fill="#37474f">-XX:+UseContainerSupport</text>
  <text x="76" y="268" font-size="9" fill="#37474f">-XX:MaxRAMPercentage=75.0</text>

  <text x="76" y="288" font-size="11" fill="#1565c0" font-weight="bold">Environment</text>
  <text x="76" y="302" font-size="9" fill="#37474f">MYSQL_HOST=mysql</text>
  <text x="76" y="314" font-size="9" fill="#37474f">MYSQL_PORT=3306</text>
  <text x="76" y="326" font-size="9" fill="#37474f">MYSQL_DB=bursa_data</text>
  <text x="76" y="338" font-size="9" fill="#37474f">SERVER_PORT=8080</text>

  <text x="76" y="358" font-size="11" fill="#1565c0" font-weight="bold">Port</text>
  <rect x="76" y="362" width="60" height="20" rx="4" fill="#bbdefb" stroke="#1565c0" stroke-width="1"/>
  <text x="106" y="376" text-anchor="middle" font-size="10" font-weight="bold" fill="#0d47a1">8080</text>

  <text x="76" y="402" font-size="10" fill="#546e7f">depends_on: mysql (healthy)</text>
  <text x="76" y="416" font-size="10" fill="#546e7f">restart: unless-stopped</text>

  <!-- Internal arrow: app -> mysql -->
  <line x1="360" y1="300" x2="400" y2="300" stroke="#424242" stroke-width="1.5" marker-end="url(#arrowRight)"/>
  <text x="380" y="293" text-anchor="middle" font-size="8" fill="#757575">3306</text>

  <!-- ============================================================ -->
  <!-- magutong-mysql container -->
  <!-- ============================================================ -->
  <rect x="400" y="120" width="260" height="260" rx="8" fill="#fff3e0" stroke="#e65100" stroke-width="2"/>
  <!-- Container header bar -->
  <rect x="400" y="120" width="260" height="32" rx="8" fill="#e65100"/>
  <rect x="400" y="140" width="260" height="12" fill="#e65100"/>
  <text x="530" y="141" text-anchor="middle" font-size="13" font-weight="bold" fill="#ffffff">magutong-mysql</text>

  <!-- Container details -->
  <text x="416" y="174" font-size="11" fill="#e65100" font-weight="bold">Base Image</text>
  <text x="416" y="188" font-size="10" fill="#37474f">mysql:8.0</text>

  <text x="416" y="208" font-size="11" fill="#e65100" font-weight="bold">Configuration</text>
  <text x="416" y="222" font-size="9" fill="#37474f">charset: utf8mb4</text>
  <text x="416" y="234" font-size="9" fill="#37474f">collation: utf8mb4_unicode_ci</text>
  <text x="416" y="246" font-size="9" fill="#37474f">timezone: +08:00</text>

  <text x="416" y="266" font-size="11" fill="#e65100" font-weight="bold">Port</text>
  <rect x="416" y="270" width="60" height="20" rx="4" fill="#ffe0b2" stroke="#e65100" stroke-width="1"/>
  <text x="446" y="284" text-anchor="middle" font-size="10" font-weight="bold" fill="#bf360c">3306</text>

  <!-- Health check indicator -->
  <text x="416" y="310" font-size="11" fill="#e65100" font-weight="bold">Healthcheck</text>
  <circle cx="426" cy="324" r="5" fill="#4caf50" stroke="#2e7d32" stroke-width="1"/>
  <text x="436" y="328" font-size="9" fill="#37474f">mysqladmin ping</text>
  <text x="436" y="340" font-size="9" fill="#37474f">interval: 10s, retries: 5</text>
  <text x="416" y="358" font-size="10" fill="#546e7f">restart: unless-stopped</text>

  <!-- ============================================================ -->
  <!-- Volume -->
  <!-- ============================================================ -->
  <rect x="420" y="400" width="220" height="60" rx="8" fill="#e0f7fa" stroke="#00897b" stroke-width="2"/>
  <!-- Volume icon (cylinder-like shape) -->
  <ellipse cx="444" cy="418" rx="10" ry="5" fill="#b2dfdb" stroke="#00897b" stroke-width="1"/>
  <rect x="434" y="418" width="20" height="14" fill="#b2dfdb" stroke="none"/>
  <line x1="434" y1="418" x2="434" y2="432" stroke="#00897b" stroke-width="1"/>
  <line x1="454" y1="418" x2="454" y2="432" stroke="#00897b" stroke-width="1"/>
  <ellipse cx="444" cy="432" rx="10" ry="5" fill="#b2dfdb" stroke="#00897b" stroke-width="1"/>

  <text x="468" y="424" font-size="11" font-weight="bold" fill="#00695c">mysql-data</text>
  <text x="468" y="440" font-size="9" fill="#37474f">/var/lib/mysql (local driver)</text>

  <!-- Arrow: mysql -> volume -->
  <line x1="530" y1="380" x2="530" y2="398" stroke="#00897b" stroke-width="1.5" marker-end="url(#arrowRight)"/>
  <text x="540" y="393" font-size="8" fill="#00897b">mount</text>

  <!-- ============================================================ -->
  <!-- External: User Browser -->
  <!-- ============================================================ -->
  <rect x="60" y="500" width="200" height="70" rx="8" fill="#ffffff" stroke="#1565c0" stroke-width="2"/>
  <text x="160" y="524" text-anchor="middle" font-size="12" font-weight="bold" fill="#1565c0">User Browser</text>
  <text x="160" y="542" text-anchor="middle" font-size="10" fill="#546e7f">HTTP requests</text>
  <text x="160" y="556" text-anchor="middle" font-size="10" fill="#546e7f">localhost:8080</text>

  <!-- Arrow: User Browser -> App port 8080 -->
  <path d="M 160 500 L 160 470 L 136 470 L 136 440" stroke="#1565c0" stroke-width="1.8" fill="none" marker-end="url(#arrowRight)" stroke-dasharray="none"/>
  <rect x="100" y="462" width="72" height="16" rx="3" fill="#e3f2fd" stroke="#1565c0" stroke-width="1"/>
  <text x="136" y="474" text-anchor="middle" font-size="9" font-weight="bold" fill="#0d47a1">8080:8080</text>

  <!-- ============================================================ -->
  <!-- External: Bursa Malaysia -->
  <!-- ============================================================ -->
  <rect x="320" y="500" width="220" height="70" rx="8" fill="#ffffff" stroke="#e65100" stroke-width="2"/>
  <text x="430" y="524" text-anchor="middle" font-size="12" font-weight="bold" fill="#e65100">Bursa Malaysia</text>
  <text x="430" y="542" text-anchor="middle" font-size="10" fill="#546e7f">www.bursamalaysia.com</text>
  <text x="430" y="556" text-anchor="middle" font-size="10" fill="#546e7f">Outbound HTTPS (Playwright)</text>

  <!-- Arrow: App -> Bursa Malaysia -->
  <path d="M 260 440 L 260 470 L 380 470 L 380 498" stroke="#e65100" stroke-width="1.8" fill="none" marker-end="url(#arrowRight)" stroke-dasharray="5 3"/>
  <text x="320" y="465" text-anchor="middle" font-size="8" fill="#e65100">HTTPS</text>

  <!-- External: MySQL port mapping -->
  <rect x="580" y="500" width="100" height="50" rx="8" fill="#ffffff" stroke="#e65100" stroke-width="1.5"/>
  <text x="630" y="522" text-anchor="middle" font-size="10" font-weight="bold" fill="#e65100">Host Port</text>
  <text x="630" y="538" text-anchor="middle" font-size="10" fill="#546e7f">3306:3306</text>

  <!-- Arrow: MySQL -> Host Port -->
  <line x1="600" y1="380" x2="630" y2="498" stroke="#e65100" stroke-width="1.2" marker-end="url(#arrowRight)" stroke-dasharray="4 3"/>

  <!-- ============================================================ -->
  <!-- Build Pipeline (side box) -->
  <!-- ============================================================ -->
  <rect x="720" y="50" width="260" height="540" rx="10" fill="#f3e5f5" stroke="#7b1fa2" stroke-width="2"/>
  <text x="850" y="74" text-anchor="middle" font-size="14" font-weight="bold" fill="#7b1fa2">Build Pipeline</text>
  <text x="850" y="90" text-anchor="middle" font-size="10" fill="#6a1b9a">(Multi-stage Dockerfile)</text>

  <!-- Stage 1 -->
  <rect x="740" y="110" width="220" height="180" rx="8" fill="#e1bee7" stroke="#8e24aa" stroke-width="1.5"/>
  <rect x="740" y="110" width="220" height="28" rx="8" fill="#8e24aa"/>
  <rect x="740" y="128" width="220" height="10" fill="#8e24aa"/>
  <text x="850" y="130" text-anchor="middle" font-size="12" font-weight="bold" fill="#ffffff">Stage 1: builder</text>

  <text x="756" y="158" font-size="11" fill="#6a1b9a" font-weight="bold">Base Image</text>
  <text x="756" y="174" font-size="9" fill="#37474f">maven:3.9-eclipse-temurin-17</text>

  <text x="756" y="194" font-size="11" fill="#6a1b9a" font-weight="bold">Steps</text>
  <text x="756" y="208" font-size="9" fill="#37474f">1. COPY pom.xml</text>
  <text x="756" y="220" font-size="9" fill="#37474f">2. mvn dependency:go-offline</text>
  <text x="756" y="232" font-size="9" fill="#37474f">3. COPY src/</text>
  <text x="756" y="244" font-size="9" fill="#37474f">4. mvn clean package -DskipTests</text>

  <text x="756" y="268" font-size="11" fill="#6a1b9a" font-weight="bold">Output</text>
  <rect x="756" y="272" width="120" height="16" rx="3" fill="#ce93d8" stroke="#8e24aa" stroke-width="1"/>
  <text x="816" y="284" text-anchor="middle" font-size="9" font-weight="bold" fill="#4a148c">magu-tong.jar (fat-jar)</text>

  <!-- Arrow: Stage 1 -> Stage 2 -->
  <line x1="850" y1="290" x2="850" y2="320" stroke="#7b1fa2" stroke-width="2" marker-end="url(#arrowPurple)"/>
  <text x="870" y="310" font-size="8" fill="#7b1fa2">COPY --from=builder</text>

  <!-- Stage 2 -->
  <rect x="740" y="320" width="220" height="200" rx="8" fill="#e1bee7" stroke="#8e24aa" stroke-width="1.5"/>
  <rect x="740" y="320" width="220" height="28" rx="8" fill="#8e24aa"/>
  <rect x="740" y="338" width="220" height="10" fill="#8e24aa"/>
  <text x="850" y="340" text-anchor="middle" font-size="12" font-weight="bold" fill="#ffffff">Stage 2: runtime</text>

  <text x="756" y="368" font-size="11" fill="#6a1b9a" font-weight="bold">Base Image</text>
  <text x="756" y="382" font-size="9" fill="#37474f">eclipse-temurin:17-jre</text>

  <text x="756" y="402" font-size="11" fill="#6a1b9a" font-weight="bold">Installed</text>
  <text x="756" y="416" font-size="9" fill="#37474f">Chromium system deps (libnss3,</text>
  <text x="756" y="428" font-size="9" fill="#37474f">libatk, libcups, libdrm, ...)</text>
  <text x="756" y="442" font-size="9" fill="#37474f">Playwright Chromium browser</text>
  <text x="756" y="456" font-size="9" fill="#37474f">CJK fonts (fonts-noto-cjk)</text>

  <text x="756" y="476" font-size="11" fill="#6a1b9a" font-weight="bold">Entrypoint</text>
  <text x="756" y="490" font-size="9" fill="#37474f">java $JAVA_OPTS -jar app.jar</text>

  <text x="756" y="510" font-size="9" fill="#546e7f">EXPOSE 8080</text>

  <!-- Arrow: Build Pipeline -> App container -->
  <path d="M 720 430 L 700 430 L 700 250 L 362 250" stroke="#7b1fa2" stroke-width="1.5" fill="none" marker-end="url(#arrowPurple)" stroke-dasharray="6 3"/>
  <text x="690" y="340" font-size="8" fill="#7b1fa2" transform="rotate(-90 690 340)">docker compose build</text>

  <!-- Footer -->
  <text x="500" y="640" text-anchor="middle" font-size="9" fill="#9e9e9e">MaGuTong Docker Deployment Architecture | docker-compose.yml + Dockerfile</text>
</svg>